HIERARCHY
ROOT Hips
{
	OFFSET 0.000000 83.214638 0.000000
	CHANNELS 6 Xposition Yposition Zposition Xrotation Yrotation Zrotation
	JOINT Pelvis
	{
		OFFSET 0.000000 0.000000 0.000000
		CHANNELS 3 Xrotation Yrotation Zrotation
		JOINT LeftUpLeg
		{
			OFFSET 8.479700 -4.795502 -0.379100
			CHANNELS 3 Xrotation Yrotation Zrotation
			JOINT LeftLeg
			{
				OFFSET 0.024144 -32.555107 0.112900
				CHANNELS 3 Xrotation Yrotation Zrotation
				JOINT LeftFoot
				{
					OFFSET -0.024144 -32.638630 -3.012600
					CHANNELS 3 Xrotation Yrotation Zrotation
					JOINT LeftToeBase
					{
						OFFSET 0.970200 -13.225400 11.864200
						CHANNELS 3 Xrotation Yrotation Zrotation
						End Site
						{
							OFFSET 0.000000 12.319262 0.000000
						}
					}
					JOINT LFootTongue
					{
						OFFSET 1.142400 -1.059800 6.665200
						CHANNELS 3 Xrotation Yrotation Zrotation
						End Site
						{
							OFFSET 0.000000 12.319262 0.000000
						}
					}
				}
				JOINT LeftPantLeg
				{
					OFFSET 0.918482 -16.533964 -2.284700
					CHANNELS 3 Xrotation Yrotation Zrotation
					End Site
					{
						OFFSET 0.350399 24.744368 0.000000
					}
				}
			}
		}
		JOINT RightUpLeg
		{
			OFFSET -8.479700 -4.795502 -0.379100
			CHANNELS 3 Xrotation Yrotation Zrotation
			JOINT RightLeg
			{
				OFFSET -0.023144 -32.555092 0.112900
				CHANNELS 3 Xrotation Yrotation Zrotation
				JOINT RightFoot
				{
					OFFSET 0.023144 -32.638641 -3.012700
					CHANNELS 3 Xrotation Yrotation Zrotation
					JOINT RightToeBase
					{
						OFFSET -0.970200 -13.225400 11.864200
						CHANNELS 3 Xrotation Yrotation Zrotation
						End Site
						{
							OFFSET 0.000000 12.319244 0.000000
						}
					}
					JOINT RFootTongue
					{
						OFFSET -1.142200 -1.059800 6.665200
						CHANNELS 3 Xrotation Yrotation Zrotation
						End Site
						{
							OFFSET 0.000000 12.319243 0.000000
						}
					}
				}
				JOINT RightPantLeg
				{
					OFFSET -0.919482 -16.533978 -2.284800
					CHANNELS 3 Xrotation Yrotation Zrotation
					End Site
					{
						OFFSET -0.350400 24.744419 0.000000
					}
				}
			}
		}
	}
	JOINT Spine
	{
		OFFSET 0.000000 7.722000 1.166200
		CHANNELS 3 Xrotation Yrotation Zrotation
		JOINT Spine1
		{
			OFFSET 0.000000 12.024101 0.248800
			CHANNELS 3 Xrotation Yrotation Zrotation
			JOINT Spine2
			{
				OFFSET 0.000000 11.502998 -0.491200
				CHANNELS 3 Xrotation Yrotation Zrotation
				JOINT Neck
				{
					OFFSET 0.000000 18.430702 -3.123100
					CHANNELS 3 Xrotation Yrotation Zrotation
					JOINT Head
					{
						OFFSET 0.000000 9.051102 1.034000
						CHANNELS 3 Xrotation Yrotation Zrotation
						JOINT HairB
						{
							OFFSET 0.208400 24.786102 24.822300
							CHANNELS 3 Xrotation Yrotation Zrotation
							End Site
							{
								OFFSET 0.000000 32.263779 0.000000
							}
						}
						JOINT HairA
						{
							OFFSET -7.081100 24.428299 23.196600
							CHANNELS 3 Xrotation Yrotation Zrotation
							End Site
							{
								OFFSET 0.000000 32.263779 0.000000
							}
						}
						JOINT Hat
						{
							OFFSET 16.728800 15.048294 -15.439601
							CHANNELS 3 Xrotation Yrotation Zrotation
							End Site
							{
								OFFSET 0.000000 32.263779 0.000000
							}
						}
					}
				}
				JOINT LeftShoulder
				{
					OFFSET 6.197800 13.665199 -4.064700
					CHANNELS 3 Xrotation Yrotation Zrotation
					JOINT LeftArm
					{
						OFFSET 7.778100 -0.187103 -1.709300
						CHANNELS 3 Xrotation Yrotation Zrotation
						JOINT LeftForeArm
						{
							OFFSET 22.049376 0.000000 0.000000
							CHANNELS 3 Xrotation Yrotation Zrotation
							JOINT LeftHand
							{
								OFFSET 23.009392 0.000000 0.000000
								CHANNELS 3 Xrotation Yrotation Zrotation
								JOINT LeftHandThumb1
								{
									OFFSET 3.507191 -2.063065 3.133727
									CHANNELS 3 Xrotation Yrotation Zrotation
									JOINT LeftHandThumb2
									{
										OFFSET 3.101337 -1.790558 1.790558
										CHANNELS 3 Xrotation Yrotation Zrotation
										JOINT LeftHandThumb3
										{
											OFFSET 3.058640 -1.765907 1.765906
											CHANNELS 3 Xrotation Yrotation Zrotation
											End Site
											{
												OFFSET -0.415260 3.926476 -0.049563
											}
										}
									}
								}
								JOINT LeftHandIndex1
								{
									OFFSET 11.334419 -0.901459 3.706815
									CHANNELS 3 Xrotation Yrotation Zrotation
									JOINT LeftHandIndex2
									{
										OFFSET 3.283112 0.000000 0.000000
										CHANNELS 3 Xrotation Yrotation Zrotation
										JOINT LeftHandIndex3
										{
											OFFSET 3.323853 0.000000 0.000000
											CHANNELS 3 Xrotation Yrotation Zrotation
											End Site
											{
												OFFSET -1.135597 3.097809 0.402452
											}
										}
									}
								}
								JOINT LeftHandMiddle1
								{
									OFFSET 11.335861 0.000000 0.000000
									CHANNELS 3 Xrotation Yrotation Zrotation
									JOINT LeftHandMiddle2
									{
										OFFSET 3.410492 0.000000 0.000000
										CHANNELS 3 Xrotation Yrotation Zrotation
										JOINT LeftHandMiddle3
										{
											OFFSET 3.312172 0.000000 0.000000
											CHANNELS 3 Xrotation Yrotation Zrotation
											End Site
											{
												OFFSET -1.150200 3.080154 0.400270
											}
										}
									}
								}
								JOINT LeftHandRing1
								{
									OFFSET 11.514786 -0.013176 -3.003090
									CHANNELS 3 Xrotation Yrotation Zrotation
									JOINT LeftHandRing2
									{
										OFFSET 3.053307 0.000000 0.000000
										CHANNELS 3 Xrotation Yrotation Zrotation
										JOINT LeftHandRing3
										{
											OFFSET 3.295807 0.000000 0.000000
											CHANNELS 3 Xrotation Yrotation Zrotation
											End Site
											{
												OFFSET -1.281006 3.013344 0.375733
											}
										}
									}
								}
								JOINT LeftHandPinky1
								{
									OFFSET 10.518692 -0.960396 -5.730441
									CHANNELS 3 Xrotation Yrotation Zrotation
									JOINT LeftHandPinky2
									{
										OFFSET 2.861649 0.000000 0.000000
										CHANNELS 3 Xrotation Yrotation Zrotation
										JOINT LeftHandPinky3
										{
											OFFSET 2.863380 0.000000 0.000000
											CHANNELS 3 Xrotation Yrotation Zrotation
											End Site
											{
												OFFSET -0.843597 2.711159 0.369971
											}
										}
									}
								}
							}
							JOINT LSleeve
							{
								OFFSET 6.676277 -0.344902 -1.011730
								CHANNELS 3 Xrotation Yrotation Zrotation
								End Site
								{
									OFFSET 0.000000 14.885353 0.000000
								}
							}
						}
					}
				}
				JOINT RightShoulder
				{
					OFFSET -6.197800 13.665199 -4.064700
					CHANNELS 3 Xrotation Yrotation Zrotation
					JOINT RightArm
					{
						OFFSET -7.778100 -0.187103 -1.709300
						CHANNELS 3 Xrotation Yrotation Zrotation
						JOINT RightForeArm
						{
							OFFSET -22.049376 0.000000 0.000000
							CHANNELS 3 Xrotation Yrotation Zrotation
							JOINT RightHand
							{
								OFFSET -23.009392 0.000000 0.000000
								CHANNELS 3 Xrotation Yrotation Zrotation
								JOINT RightHandThumb1
								{
									OFFSET -3.507191 -2.063065 3.133727
									CHANNELS 3 Xrotation Yrotation Zrotation
									JOINT RightHandThumb2
									{
										OFFSET -3.101337 -1.790558 1.790558
										CHANNELS 3 Xrotation Yrotation Zrotation
										JOINT RightHandThumb3
										{
											OFFSET -3.058640 -1.765907 1.765906
											CHANNELS 3 Xrotation Yrotation Zrotation
											End Site
											{
												OFFSET 0.415260 3.926476 -0.049563
											}
										}
									}
								}
								JOINT RightHandIndex1
								{
									OFFSET -11.334419 -0.901459 3.706815
									CHANNELS 3 Xrotation Yrotation Zrotation
									JOINT RightHandIndex2
									{
										OFFSET -3.283112 0.000000 0.000000
										CHANNELS 3 Xrotation Yrotation Zrotation
										JOINT RightHandIndex3
										{
											OFFSET -3.323853 0.000000 0.000000
											CHANNELS 3 Xrotation Yrotation Zrotation
											End Site
											{
												OFFSET 1.135597 3.097809 0.402452
											}
										}
									}
								}
								JOINT RightHandMiddle1
								{
									OFFSET -11.335861 0.000000 0.000000
									CHANNELS 3 Xrotation Yrotation Zrotation
									JOINT RightHandMiddle2
									{
										OFFSET -3.410492 0.000000 0.000000
										CHANNELS 3 Xrotation Yrotation Zrotation
										JOINT RightHandMiddle3
										{
											OFFSET -3.312172 0.000000 0.000000
											CHANNELS 3 Xrotation Yrotation Zrotation
											End Site
											{
												OFFSET 1.150200 3.080154 0.400270
											}
										}
									}
								}
								JOINT RightHandRing1
								{
									OFFSET -11.514786 -0.013176 -3.003090
									CHANNELS 3 Xrotation Yrotation Zrotation
									JOINT RightHandRing2
									{
										OFFSET -3.053307 0.000000 0.000000
										CHANNELS 3 Xrotation Yrotation Zrotation
										JOINT RightHandRing3
										{
											OFFSET -3.295807 0.000000 0.000000
											CHANNELS 3 Xrotation Yrotation Zrotation
											End Site
											{
												OFFSET 1.281006 3.013344 0.375733
											}
										}
									}
								}
								JOINT RightHandPinky1
								{
									OFFSET -10.518692 -0.960396 -5.730441
									CHANNELS 3 Xrotation Yrotation Zrotation
									JOINT RightHandPinky2
									{
										OFFSET -2.861649 0.000000 0.000000
										CHANNELS 3 Xrotation Yrotation Zrotation
										JOINT RightHandPinky3
										{
											OFFSET -2.863380 0.000000 0.000000
											CHANNELS 3 Xrotation Yrotation Zrotation
											End Site
											{
												OFFSET 0.843597 2.711159 0.369971
											}
										}
									}
								}
							}
							JOINT RSleeve
							{
								OFFSET -6.676277 -0.344902 -1.011730
								CHANNELS 3 Xrotation Yrotation Zrotation
								End Site
								{
									OFFSET 0.000000 14.885353 0.000000
								}
							}
						}
					}
				}
				JOINT Backpack
				{
					OFFSET 0.000000 -2.471497 36.677502
					CHANNELS 3 Xrotation Yrotation Zrotation
					End Site
					{
						OFFSET 0.000000 20.427315 0.000000
					}
				}
				JOINT Hood
				{
					OFFSET 0.000000 18.754097 -10.431000
					CHANNELS 3 Xrotation Yrotation Zrotation
					JOINT Hood1
					{
						OFFSET 0.000000 -5.011002 -7.685901
						CHANNELS 3 Xrotation Yrotation Zrotation
						End Site
						{
							OFFSET 0.000000 9.175140 0.000000
						}
					}
				}
				JOINT LHoodieString
				{
					OFFSET 5.250500 16.397697 3.089900
					CHANNELS 3 Xrotation Yrotation Zrotation
					JOINT LHoodieString1
					{
						OFFSET 0.257700 -6.364304 3.694600
						CHANNELS 3 Xrotation Yrotation Zrotation
						JOINT LHoodieString2
						{
							OFFSET 0.000000 -9.643799 2.679100
							CHANNELS 3 Xrotation Yrotation Zrotation
							End Site
							{
								OFFSET 0.000000 10.009018 0.000000
							}
						}
					}
				}
				JOINT RHoodieString
				{
					OFFSET -5.250500 16.397697 3.089900
					CHANNELS 3 Xrotation Yrotation Zrotation
					JOINT RHoodieString1
					{
						OFFSET -0.257700 -6.364304 3.694600
						CHANNELS 3 Xrotation Yrotation Zrotation
						JOINT RHoodieString2
						{
							OFFSET 0.000000 -9.643799 2.679100
							CHANNELS 3 Xrotation Yrotation Zrotation
							End Site
							{
								OFFSET 0.000000 10.009018 0.000000
							}
						}
					}
				}
			}
			JOINT LBackpack_Strap
			{
				OFFSET 15.223200 -7.719803 -6.610900
				CHANNELS 3 Xrotation Yrotation Zrotation
				End Site
				{
					OFFSET 0.000000 16.040596 0.000000
				}
			}
			JOINT RBackpack_Strap
			{
				OFFSET -15.223000 -7.719803 -6.610900
				CHANNELS 3 Xrotation Yrotation Zrotation
				End Site
				{
					OFFSET 0.000000 16.040596 0.000000
				}
			}
		}
	}
	JOINT BoyFacialAnim_Joint
	{
		OFFSET 1.000000 -82.208099 -1.550900
		CHANNELS 3 Xrotation Yrotation Zrotation
		End Site
		{
			OFFSET 0.000000 30.012791 0.000000
		}
	}
}
MOTION
Frames: 4
Frame Time: 0.033333
8.608684 74.098030 37.024071 -1.533763 -70.366255 0.106523 0.000000 0.000001 0.000000 -24.834511 10.402860 30.019156 19.939095 -8.116907 10.422602 11.430407 -21.338331 -27.810561 -0.000000 -0.000000 0.000000 -0.000000 -0.000000 0.000000 -0.000002 -0.000002 -0.000000 -22.019550 -12.255069 -33.725705 36.574058 3.963796 -3.932399 -7.113434 -3.178607 20.372404 0.000000 0.000000 0.000001 0.000000 0.000000 0.000001 -0.000000 -0.000000 -0.000000 9.746548 6.322953 3.032184 -0.647916 1.061092 -2.351957 -0.604475 1.020505 -2.381497 5.891255 4.309451 -3.333919 11.674924 21.444805 -17.858322 0.000000 0.000001 0.000001 0.000000 0.000001 0.000001 0.000000 0.000001 0.000001 0.665038 -9.265378 -3.812432 -26.693151 -3.986488 -23.704685 0.000057 -122.909568 0.000048 -19.199009 5.251524 -1.664068 -3.232565 7.711997 13.013338 13.519228 22.977554 -16.827552 0.000000 -0.000001 -0.000000 2.797738 6.274902 -80.086536 6.997851 6.880213 -90.973721 -0.000001 0.000002 -0.000001 3.591423 6.226058 -74.263663 6.650133 6.877324 -88.071034 -0.000001 -0.000001 0.000002 4.500254 6.539231 -78.473717 7.505043 6.853001 -95.214087 -0.000001 -0.000000 -0.000006 10.413014 7.390663 -82.635850 6.996336 2.794003 -90.964698 -0.000003 -0.000001 0.000003 0.000001 -0.000001 0.000001 1.830472 20.920188 1.567568 -59.657283 36.125321 67.968066 -0.000058 106.069211 0.000043 -22.508318 13.894474 -17.406551 4.890342 -4.392716 -1.811100 13.463794 -31.161782 3.892426 -0.000002 0.000001 0.000001 3.891349 -6.353375 73.928315 7.817946 -6.893862 97.208004 -0.000003 0.000000 0.000002 4.517604 -6.523201 72.786061 8.447965 -6.785217 102.494631 0.000001 0.000001 0.000002 4.845579 -6.623956 72.502533 8.702489 -6.724182 104.658497 0.000002 0.000001 0.000004 5.863236 -6.909052 74.509960 7.817956 -6.893874 97.207969 0.000001 0.000001 0.000000 0.000000 0.000001 -0.000003 0.000000 0.000003 -0.000000 0.000000 0.000003 -0.000000 0.000000 0.000003 -0.000000 0.000000 0.000003 -0.000000 0.000000 0.000003 -0.000000 -0.000001 0.000003 -0.000000 0.000000 0.000003 -0.000000 0.000000 0.000003 -0.000000 -0.000001 0.000003 -0.000000 0.000001 0.000000 -0.000000 0.000001 0.000000 -0.000000 0.000000 0.000001 0.000000 
7.759280 74.870316 34.165276 -0.984328 -66.377281 2.390286 -0.000000 0.000001 0.000000 -23.686708 11.667997 27.175743 10.680108 -7.969174 10.134039 22.792886 -23.965320 -21.430402 -0.000001 0.000001 -0.000001 -0.000001 0.000001 -0.000001 -0.000004 -0.000002 0.000000 -19.230772 -13.662729 -33.737303 35.589312 0.568741 -2.566368 -9.903595 -4.375900 21.800948 0.000000 0.000001 -0.000000 0.000000 0.000001 -0.000000 0.000000 0.000000 -0.000001 8.713990 6.463805 2.238740 -0.352974 1.100535 -2.790731 -0.304971 1.054183 -2.816033 6.672765 4.036861 -4.042215 11.811060 19.487872 -17.099105 0.000000 -0.000001 -0.000000 0.000000 -0.000001 -0.000000 0.000000 -0.000001 -0.000000 0.614967 -9.172784 -6.312937 -27.023587 -4.514165 -23.919182 -0.000025 -123.784966 -0.000025 -18.575338 4.795781 0.739744 -3.232572 7.711997 13.013346 13.519237 22.977559 -16.827556 0.000001 -0.000001 0.000003 2.797736 6.274899 -80.086523 6.997852 6.880221 -90.973721 -0.000000 0.000000 -0.000004 3.591421 6.226056 -74.263663 6.650133 6.877324 -88.071034 0.000001 0.000001 -0.000003 4.500249 6.539228 -78.473724 7.505038 6.853004 -95.214080 -0.000001 -0.000000 -0.000006 10.413014 7.390657 -82.635850 6.996336 2.794003 -90.964692 -0.000001 0.000000 0.000001 -0.000003 0.000001 -0.000001 2.116301 22.491659 0.728870 -58.116782 34.197654 66.088166 0.000314 107.185476 -0.000309 -21.927078 13.264319 -18.060152 4.890341 -4.392713 -1.811102 13.463791 -31.161785 3.892423 0.000000 -0.000002 0.000004 3.891347 -6.353371 73.928315 7.817946 -6.893862 97.208004 -0.000001 0.000001 0.000002 4.517602 -6.523200 72.786054 8.447964 -6.785218 102.494638 -0.000000 0.000000 0.000002 4.845578 -6.623954 72.502533 8.702491 -6.724183 104.658497 -0.000001 0.000002 -0.000003 5.863232 -6.909050 74.509960 7.817955 -6.893874 97.207969 -0.000000 -0.000001 0.000000 -0.000001 -0.000003 0.000002 -0.000000 -0.000002 0.000000 -0.000000 -0.000002 0.000000 -0.000000 -0.000002 0.000000 -0.000000 -0.000002 0.000000 -0.000000 -0.000002 0.000000 -0.000001 -0.000002 -0.000000 -0.000000 -0.000002 0.000000 -0.000000 -0.000002 0.000000 -0.000001 -0.000002 -0.000000 0.000000 0.000003 -0.000000 0.000000 0.000003 -0.000000 -0.000000 0.000001 0.000000 
7.206490 75.286499 31.524616 -0.492993 -62.318188 4.277411 -0.000000 -0.000001 0.000000 -22.654235 12.828156 23.626553 3.734086 -9.055668 10.060483 29.811153 -20.908836 -16.230879 -0.000001 0.000000 -0.000000 -0.000001 0.000000 -0.000000 -0.000001 -0.000001 0.000000 -17.496457 -15.053074 -34.283072 35.421880 -0.996589 -0.888227 -12.509309 -4.976218 22.214673 -0.000000 0.000000 0.000000 -0.000000 0.000000 0.000000 0.000001 -0.000000 0.000001 7.919244 6.517419 2.460794 -0.097478 1.114137 -3.316713 -0.042585 1.061925 -3.337795 7.063351 3.797802 -4.663494 12.184286 17.681024 -17.014761 0.000001 -0.000003 0.000001 0.000001 -0.000003 0.000001 0.000001 -0.000003 0.000001 0.558753 -8.150314 -9.265571 -26.622696 -6.342795 -24.516768 -0.000020 -125.009810 -0.000028 -17.986996 3.929026 3.045626 -3.232574 7.711997 13.013340 13.519239 22.977557 -16.827546 0.000003 -0.000000 0.000001 2.797731 6.274899 -80.086529 6.997854 6.880218 -90.973728 -0.000002 0.000001 -0.000000 3.591417 6.226057 -74.263663 6.650139 6.877323 -88.071027 0.000003 -0.000001 0.000002 4.500246 6.539225 -78.473724 7.505041 6.852996 -95.214080 0.000003 -0.000002 -0.000006 10.413011 7.390660 -82.635843 6.996334 2.794003 -90.964692 0.000000 0.000000 -0.000002 -0.000000 0.000002 -0.000001 2.281819 22.227420 -0.388572 -57.860260 33.399222 66.250164 0.000241 107.404151 -0.000254 -21.471060 13.300895 -18.141478 4.890342 -4.392715 -1.811100 13.463792 -31.161778 3.892423 -0.000000 -0.000003 0.000004 3.891353 -6.353375 73.928315 7.817946 -6.893861 97.208010 -0.000003 0.000001 0.000002 4.517608 -6.523204 72.786054 8.447963 -6.785219 102.494631 0.000001 -0.000000 0.000001 4.845582 -6.623956 72.502533 8.702490 -6.724182 104.658497 0.000000 0.000000 -0.000001 5.863235 -6.909049 74.509960 7.817956 -6.893869 97.207969 -0.000001 -0.000001 -0.000000 0.000002 -0.000002 0.000002 -0.000000 -0.000002 -0.000000 -0.000000 -0.000002 -0.000000 -0.000000 -0.000002 -0.000000 -0.000000 -0.000002 -0.000000 -0.000000 -0.000002 0.000000 -0.000000 0.000002 -0.000000 -0.000000 -0.000002 -0.000000 -0.000000 -0.000002 0.000000 -0.000000 0.000002 -0.000000 0.000000 -0.000000 0.000000 0.000000 -0.000000 0.000000 -0.000000 -0.000001 0.000000 
6.986619 75.233833 29.317093 -0.594818 -59.084531 5.280651 -0.000000 0.000001 -0.000001 -27.358727 11.539923 22.620434 12.796820 -9.528331 9.535062 21.449977 -17.432975 -18.699274 -0.000001 -0.000001 -0.000000 -0.000001 -0.000001 -0.000000 -0.000003 -0.000000 0.000000 -16.553407 -16.434929 -35.097948 36.030201 -1.954708 1.141636 -15.810182 -5.698823 22.210184 -0.000000 -0.000000 -0.000000 -0.000000 -0.000000 -0.000000 0.000000 0.000001 0.000004 7.978682 6.700630 2.900629 -0.123962 1.149808 -3.648410 -0.063054 1.091072 -3.670675 7.188102 3.619795 -5.085722 12.810411 16.257051 -17.240818 -0.000002 -0.000000 0.000000 -0.000002 -0.000000 0.000000 -0.000002 -0.000000 0.000000 0.562794 -6.654098 -11.391382 -25.379750 -8.008422 -26.531511 -0.000005 -126.648714 0.000006 -16.699905 2.510869 3.980857 -3.232569 7.711998 13.013341 13.519238 22.977559 -16.827552 0.000002 -0.000000 0.000004 2.797737 6.274901 -80.086529 6.997852 6.880217 -90.973721 -0.000004 -0.000001 -0.000004 3.591418 6.226059 -74.263670 6.650136 6.877326 -88.071034 -0.000000 0.000000 -0.000003 4.500249 6.539230 -78.473724 7.505043 6.853001 -95.214073 0.000001 0.000005 0.000000 10.413016 7.390662 -82.635850 6.996333 2.794001 -90.964698 -0.000002 0.000001 -0.000000 0.000002 0.000001 0.000001 2.374719 22.085454 -1.024527 -57.244232 33.124368 65.979962 -0.000135 107.955135 0.000141 -20.926424 13.299642 -18.040999 4.890346 -4.392716 -1.811100 13.463791 -31.161785 3.892424 -0.000002 0.000002 0.000001 3.891353 -6.353375 73.928308 7.817945 -6.893861 97.208004 0.000003 0.000000 0.000002 4.517607 -6.523201 72.786061 8.447965 -6.785218 102.494631 0.000001 0.000001 0.000003 4.845583 -6.623957 72.502533 8.702491 -6.724182 104.658504 0.000001 0.000001 -0.000001 5.863235 -6.909049 74.509960 7.817955 -6.893873 97.207969 0.000001 -0.000001 0.000002 0.000002 -0.000002 -0.000001 -0.000000 -0.000001 0.000000 -0.000000 -0.000001 0.000000 -0.000000 -0.000001 0.000000 -0.000000 -0.000001 0.000000 -0.000000 -0.000001 0.000000 0.000000 0.000001 -0.000000 -0.000000 -0.000001 0.000000 -0.000000 -0.000001 0.000000 0.000000 0.000001 -0.000000 -0.000000 -0.000001 0.000000 -0.000000 -0.000001 0.000000 -0.000000 0.000001 -0.000001 
